<?xml version="1.0" encoding="UTF-8" standalone="no"?><!DOCTYPE svg PUBLIC "-//W3C//DTD SVG 1.1//EN" "http://www.w3.org/Graphics/SVG/1.1/DTD/svg11.dtd"><svg width="100%" height="100%" viewBox="0 0 24 24" version="1.1" xmlns="http://www.w3.org/2000/svg" xmlns:xlink="http://www.w3.org/1999/xlink" xml:space="preserve" xmlns:serif="http://www.serif.com/" style="fill-rule:evenodd;clip-rule:evenodd;stroke-linejoin:round;stroke-miterlimit:1.41421;"><path d="M1.587,0c-0.874,0 -1.587,0.712 -1.587,1.587l0,20.109c0,0.875 0.713,1.587 1.587,1.587l20.109,0c0.875,0 1.587,-0.712 1.587,-1.587l0,-20.109c0,-0.875 -0.712,-1.587 -1.587,-1.587l-20.109,0Zm4.232,3.704c0.873,0 1.587,0.714 1.587,1.588c0,0.873 -0.714,1.587 -1.587,1.587c-0.874,0 -1.588,-0.714 -1.588,-1.587c0,-0.874 0.714,-1.588 1.588,-1.588Zm2.91,1.323l10.054,0c0.358,-0.005 0.358,0.534 0,0.529l-10.054,0c-0.358,0.005 -0.358,-0.534 0,-0.529Zm-2.91,2.91c0.873,0 1.587,0.714 1.587,1.588c0,0.874 -0.714,1.587 -1.587,1.587c-0.874,0 -1.588,-0.713 -1.588,-1.587c0,-0.874 0.714,-1.588 1.588,-1.588Zm2.91,1.323l10.054,0c0.358,-0.005 0.358,0.535 0,0.53l-10.054,0c-0.358,0.005 -0.358,-0.535 0,-0.53Zm-2.91,2.911c0.873,0 1.587,0.714 1.587,1.587c0,0.874 -0.714,1.588 -1.587,1.588c-0.874,0 -1.588,-0.714 -1.588,-1.588c0,-0.873 0.714,-1.587 1.588,-1.587Zm2.91,1.323l10.054,0c0.358,-0.005 0.358,0.534 0,0.529l-10.054,0c-0.358,0.005 -0.358,-0.534 0,-0.529Zm-2.91,2.91c0.873,0 1.587,0.714 1.587,1.588c0,0.873 -0.714,1.587 -1.587,1.587c-0.874,0 -1.588,-0.714 -1.588,-1.587c0,-0.874 0.714,-1.588 1.588,-1.588Zm2.91,1.323l10.054,0c0.358,-0.005 0.358,0.534 0,0.529l-10.054,0c-0.358,0.005 -0.358,-0.534 0,-0.529Z" style="fill:#ff6f61;fill-rule:nonzero;"/></svg>